<svg xmlns="http://www.w3.org/2000/svg" width="1024" height="1024"><defs><radialGradient id="c" cx="430" cy="512" r="180" gradientUnits="userSpaceOnUse"><stop offset=".6" stop-color="gold"/><stop offset=".9" stop-color="#f9a602"/><stop offset="1" stop-color="#b8860b"/></radialGradient><radialGradient id="d" cx="594" cy="512" r="180" gradientUnits="userSpaceOnUse"><stop offset=".6" stop-color="#e0e0e0"/><stop offset=".9" stop-color="#b0b0b0"/><stop offset="1" stop-color="gray"/></radialGradient><linearGradient id="a" x1="0" x2="0" y1="0" y2="1024" gradientUnits="userSpaceOnUse"><stop offset="0" stop-color="#163359"/><stop offset="1" stop-color="#08182d"/></linearGradient><filter id="b" width="1.14504" height="1.25278" x="-.07252" y="-.10556"><feGaussianBlur in="SourceAlpha" stdDeviation="15"/><feOffset dy="15" result="offsetblur"/><feFlood flood-color="#000" flood-opacity=".5"/><feComposite in2="offsetblur" operator="in"/><feMerge><feMergeNode/><feMergeNode in="SourceGraphic"/></feMerge></filter></defs><path d="M217.13672-1.98242c-28.44127.33921-56.82434 6.1166-83.06611 17.11008C102.02245 28.48706 73.23702 49.554 50.76547 76.0185c-20.47401 24.02455-35.70888 52.48656-44.30948 82.8597C.61875 179.40224-2.17652 200.76797-2 222.1c.00329 194.23723-.00658 388.4745.00493 582.7117.07487 30.06209 6.24795 60.1139 18.22074 87.69858 13.7466 31.83158 35.1352 60.3122 61.82838 82.43611 24.83762 20.65672 54.2582 35.77121 85.5333 43.87541 19.16874 5.0044 39.0076 7.3562 58.81265 7.1782 194.13723 0 388.2745.01 582.4117 0 30.06209-.075 60.1139-6.248 87.69858-18.2208 31.83158-13.74657 60.3122-35.13518 82.43611-61.82835 20.65672-24.83762 35.77121-54.2582 43.87541-85.5333 5.0044-19.16874 7.3562-39.0076 7.1782-58.81265 0-194.13723.01-388.2745 0-582.4117-.075-30.06209-6.248-60.1139-18.2208-87.69858-13.75147-31.83648-35.14008-60.3171-61.83325-82.441-24.83762-20.65674-54.2582-35.77125-85.5333-43.87538C841.24391.1738 821.40505-2.17796 801.6-2c-194.13723.00329-388.2745-.00658-582.4117.00493z" style="fill:url(#a)"/><g filter="url(#b)" transform="translate(-111.92852 -117.882)scale(1.22152)"><circle cx="430" cy="512" r="180" fill="url(#c)" stroke="#fff2a0" stroke-width="4" style="fill:url(#c)"/><g fill="none" stroke="#b8860b" stroke-width="6" opacity=".4"><circle cx="430" cy="512" r="130"/><ellipse cx="430" cy="512" rx="50" ry="130"/><path d="M300 512h260"/></g><circle cx="594" cy="512" r="180" fill="url(#d)" stroke="#f0f0f0" stroke-width="4" style="fill:url(#d)"/><g fill="none" stroke="#606060" stroke-width="6" opacity=".4"><circle cx="594" cy="512" r="130"/><ellipse cx="594" cy="512" rx="50" ry="130"/><path d="M464 512h260"/></g><clipPath id="e"><circle cx="594" cy="512" r="180"/></clipPath><circle cx="430" cy="512" r="180" fill="#fff" fill-opacity=".2" clip-path="url(#e)"/></g><g fill="none" stroke-linecap="round" stroke-linejoin="round" stroke-width="35"><path stroke="#fff" d="M380 280c70-70 194-70 264 0" opacity=".9" style="opacity:1" transform="translate(-111.92852 -117.882)scale(1.22152)"/><path stroke="#fff" d="M615 285h35v-35" style="opacity:1" transform="translate(-111.92852 -117.882)scale(1.22152)"/><path stroke="#38b6ff" stroke-width="42.7532" d="M674.72869 790.92695c-85.50622 85.50621-236.97438 85.50621-322.4806 0"/><path stroke="#38b6ff" stroke-width="42.7532" d="M387.6721 784.81936h-42.75311v42.7531"/></g></svg>