<?xml version="1.0" encoding="UTF-8" standalone="no"?>
<svg
   width="1024"
   height="1024"
   viewBox="0 0 1024 1024"
   version="1.1"
   id="svg17"
   sodipodi:docname="gemini-svg (1).svg"
   inkscape:version="1.3.2 (091e20e, 2023-11-25)"
   inkscape:export-filename="icon.svg"
   inkscape:export-xdpi="96"
   inkscape:export-ydpi="96"
   xmlns:inkscape="http://www.inkscape.org/namespaces/inkscape"
   xmlns:sodipodi="http://sodipodi.sourceforge.net/DTD/sodipodi-0.dtd"
   xmlns="http://www.w3.org/2000/svg"
   xmlns:svg="http://www.w3.org/2000/svg">
  <sodipodi:namedview
     id="namedview17"
     pagecolor="#ffffff"
     bordercolor="#000000"
     borderopacity="0.25"
     inkscape:showpageshadow="2"
     inkscape:pageopacity="0.0"
     inkscape:pagecheckerboard="true"
     inkscape:deskcolor="#d1d1d1"
     inkscape:zoom="0.671875"
     inkscape:cx="401.86047"
     inkscape:cy="626.60465"
     inkscape:window-width="1616"
     inkscape:window-height="1239"
     inkscape:window-x="0"
     inkscape:window-y="31"
     inkscape:window-maximized="0"
     inkscape:current-layer="svg17" />
  <defs
     id="defs9">
    <linearGradient
       id="bg_grad"
       x1="0"
       y1="0"
       x2="0"
       y2="1024"
       gradientUnits="userSpaceOnUse">
      <stop
         offset="0"
         stop-color="#163359"
         id="stop1" />
      <stop
         offset="1"
         stop-color="#08182D"
         id="stop2" />
    </linearGradient>
    <radialGradient
       id="gold_grad"
       cx="430"
       cy="512"
       r="180"
       gradientUnits="userSpaceOnUse">
      <stop
         offset="0.6"
         stop-color="#FFD700"
         id="stop3" />
      <stop
         offset="0.9"
         stop-color="#F9A602"
         id="stop4" />
      <stop
         offset="1"
         stop-color="#B8860B"
         id="stop5" />
    </radialGradient>
    <radialGradient
       id="silver_grad"
       cx="594"
       cy="512"
       r="180"
       gradientUnits="userSpaceOnUse">
      <stop
         offset="0.6"
         stop-color="#E0E0E0"
         id="stop6" />
      <stop
         offset="0.9"
         stop-color="#B0B0B0"
         id="stop7" />
      <stop
         offset="1"
         stop-color="#808080"
         id="stop8" />
    </radialGradient>
    <filter
       id="soft_shadow"
       x="-0.072519084"
       y="-0.10555556"
       width="1.1450382"
       height="1.2527778">
      <feGaussianBlur
         in="SourceAlpha"
         stdDeviation="15"
         id="feGaussianBlur8" />
      <feOffset
         dx="0"
         dy="15"
         result="offsetblur"
         id="feOffset8" />
      <feFlood
         flood-color="#000000"
         flood-opacity="0.5"
         id="feFlood8" />
      <feComposite
         in2="offsetblur"
         operator="in"
         id="feComposite8" />
      <feMerge
         id="feMerge9">
        <feMergeNode
           id="feMergeNode8" />
        <feMergeNode
           in="SourceGraphic"
           id="feMergeNode9" />
      </feMerge>
    </filter>
  </defs>
  <path
     id="rect9"
     style="fill:url(#bg_grad)"
     d="M 217.13672,-1.9824219 C 188.69545,-1.6432104 160.31238,4.1341812 134.07061,15.127661 102.02245,28.487067 73.237024,49.553994 50.765468,76.018494 30.291457,100.04304 15.056585,128.50505 6.455988,158.87819 0.61875369,179.40224 -2.1765216,200.76797 -2,222.1 c 0.00329,194.23723 -0.00658,388.4745 0.00493,582.7117 0.074868,30.06209 6.2479504,60.1139 18.2207366,87.69858 13.746605,31.83158 35.135212,60.3122 61.828387,82.43611 24.837615,20.65672 54.258195,35.77121 85.533295,43.87541 19.16874,5.0044 39.0076,7.3562 58.81265,7.1782 194.13723,-0 388.2745,0.01 582.4117,-0 30.06209,-0.075 60.1139,-6.248 87.69858,-18.2208 31.83158,-13.74657 60.3122,-35.13518 82.43611,-61.82835 20.65672,-24.83762 35.77121,-54.2582 43.87541,-85.5333 5.0044,-19.16874 7.3562,-39.0076 7.1782,-58.81265 -0,-194.13723 0.01,-388.2745 -0,-582.4117 -0.075,-30.06209 -6.248,-60.1139 -18.2208,-87.69858 C 994.02773,99.658143 972.63912,71.177522 945.94595,49.053613 921.10833,28.396885 891.68775,13.28237 860.41265,5.1782367 841.24391,0.1738074 821.40505,-2.1779602 801.6,-2 c -194.13723,0.00329 -388.2745,-0.00658 -582.4117,0.00493 -0.68386,0.00422 -1.36772,0.00843 -2.05158,0.012647 z" />
  <g
     filter="url(#soft_shadow)"
     id="g14"
     transform="matrix(1.2215174,0,0,1.2215174,-111.92852,-117.882)">
    <circle
       cx="430"
       cy="512"
       r="180"
       fill="url(#gold_grad)"
       stroke="#fff2a0"
       stroke-width="4"
       id="circle9"
       style="fill:url(#gold_grad)" />
    <g
       stroke="#b8860b"
       stroke-width="6"
       opacity="0.4"
       fill="none"
       id="g10">
      <circle
         cx="430"
         cy="512"
         r="130"
         id="circle10" />
      <ellipse
         cx="430"
         cy="512"
         rx="50"
         ry="130"
         id="ellipse10" />
      <line
         x1="300"
         y1="512"
         x2="560"
         y2="512"
         id="line10" />
    </g>
    <circle
       cx="594"
       cy="512"
       r="180"
       fill="url(#silver_grad)"
       stroke="#f0f0f0"
       stroke-width="4"
       id="circle11"
       style="fill:url(#silver_grad)" />
    <g
       stroke="#606060"
       stroke-width="6"
       opacity="0.4"
       fill="none"
       id="g12">
      <circle
         cx="594"
         cy="512"
         r="130"
         id="circle12" />
      <ellipse
         cx="594"
         cy="512"
         rx="50"
         ry="130"
         id="ellipse12" />
      <line
         x1="464"
         y1="512"
         x2="724"
         y2="512"
         id="line12" />
    </g>
    <clipPath
       id="overlap_clip">
      <circle
         cx="594"
         cy="512"
         r="180"
         id="circle13" />
    </clipPath>
    <circle
       cx="430"
       cy="512"
       r="180"
       fill="#ffffff"
       fill-opacity="0.2"
       clip-path="url(#overlap_clip)"
       id="circle14" />
  </g>
  <g
     stroke-width="35"
     stroke-linecap="round"
     stroke-linejoin="round"
     fill="none"
     id="g17"
     transform="matrix(1.2215174,0,0,1.2215174,-111.92852,-117.882)">
    <path
       d="m 380,280 c 70,-70 194,-70 264,0"
       stroke="#ffffff"
       opacity="0.9"
       id="path14"
       style="opacity:1" />
    <path
       d="m 615,285 h 35 v -35"
       stroke="#ffffff"
       id="path15"
       style="opacity:1" />
    <path
       d="m 644,744 c -70,70 -194,70 -264,0"
       stroke="#38b6ff"
       id="path16" />
    <path
       d="m 409,739 h -35 v 35"
       stroke="#38b6ff"
       id="path17" />
  </g>
</svg>
